Coordinates
version=1
nRows=13
nColumns=40
inDegrees=yes

Units are S.I. units (second, meters, Newtons, ...)
Angles are in degrees.

endheader
time	pelvis_tilt	pelvis_list	pelvis_rotation	pelvis_tx	pelvis_ty	pelvis_tz	hip_flexion_r	hip_adduction_r	hip_rotation_r	knee_angle_r	knee_angle_r_beta	ankle_angle_r	subtalar_angle_r	mtp_angle_r	hip_flexion_l	hip_adduction_l	hip_rotation_l	knee_angle_l	knee_angle_l_beta	ankle_angle_l	subtalar_angle_l	mtp_angle_l	lumbar_extension	lumbar_bending	lumbar_rotation	arm_flex_r	arm_add_r	arm_rot_r	elbow_flex_r	pro_sup_r	wrist_flex_r	wrist_dev_r	arm_flex_l	arm_add_l	arm_rot_l	elbow_flex_l	pro_sup_l	wrist_flex_l	wrist_dev_l
     30.95250000	     -4.53437513	     -4.64220194	     -0.64206398	      1.01872182	      0.92458633	      0.48523448	     21.31201713	     -0.40518658	    -13.43090652	     17.15200003	     17.15200003	      2.55511329	     -0.14318367	     -2.65193631	      0.69924471	    -10.62897152	    -10.55058861	     31.14387447	     31.14387447	     15.71391484	     -3.64767544	     -9.03557255	    -10.18401799	      4.71263420	      0.40677100	    -11.11189673	    -14.54895565	    -15.33274723	     35.93977389	     46.40162788	      0.00000000	      0.00000000	     10.15900789	    -17.55257267	     -8.16834889	    100.24210067	     48.33052758	      0.00000000	      0.00000000
     30.96400000	     -4.52016175	     -4.64272126	     -0.50593987	      1.01813297	      0.92580292	      0.48749110	     20.39279418	     -0.26903885	    -13.93193812	     16.47328574	     16.47328574	      2.56453689	      0.60546563	     -3.98939041	      2.09572933	    -10.93458383	     -9.28579425	     34.02029054	     34.02029054	     11.74650063	     -7.21891880	    -14.15347490	    -10.27276016	      4.73964299	      0.66977530	    -10.60667583	    -15.19856446	    -13.78551568	     39.96364702	     46.12338970	      0.00000000	      0.00000000	      9.18302827	    -16.75888185	     -8.22860727	     98.58689852	     48.33018377	      0.00000000	      0.00000000
     30.97550000	     -4.62383610	     -4.77378426	     -0.35064527	      1.01726135	      0.92667789	      0.48984953	     19.61869250	      0.05515243	    -14.30013831	     15.80110675	     15.80110675	      2.81109602	      1.11318730	     -4.13630268	      4.12727078	    -11.55615382	     -8.23907499	     37.93620256	     37.93620256	      9.73632436	     -8.99965293	    -14.25233366	    -10.20593389	      4.83908570	      0.70465483	     -8.77492654	    -15.53031951	    -13.68046421	     41.10752364	     46.08181918	      0.00000000	      0.00000000	      7.96785680	    -16.52307998	     -7.76607764	     96.97609116	     48.26731505	      0.00000000	      0.00000000
     30.98700000	     -4.67949048	     -4.85216749	     -0.20820771	      1.01611484	      0.92736731	      0.49196053	     18.92666728	      0.25315887	    -14.80069894	     15.35570289	     15.35570289	      3.02775117	      1.85043333	     -4.67332721	      6.23946008	    -11.90341661	     -6.85133011	     41.86530166	     41.86530166	      7.31464605	    -11.51079149	    -14.02181947	    -10.19562457	      4.93636520	      0.78393110	     -7.13567816	    -15.99285870	    -13.13215786	     43.14270306	     45.97791430	      0.00000000	      0.00000000	      7.08675759	    -16.05966801	     -7.51737616	     94.59867302	     48.21006047	      0.00000000	      0.00000000
     30.99850000	     -4.77532172	     -5.13171737	     -0.02348479	      1.01468217	      0.92768258	      0.49410978	     18.29174157	      0.70703461	    -15.14070923	     14.88067026	     14.88067026	      3.25473269	      2.20297542	     -4.83990326	      8.62713198	    -12.56501361	     -5.58702142	     46.01906237	     46.01906237	      5.15223088	    -12.91414463	    -13.55901266	    -10.21394900	      5.22019361	      0.99435198	     -5.21889599	    -16.40914087	    -12.99292679	     44.48424824	     45.93034214	      0.00000000	      0.00000000	      6.03132844	    -15.61719221	     -7.02488870	     93.01433619	     48.14480499	      0.00000000	      0.00000000
     31.01000000	     -4.87503757	     -5.26546790	      0.11301684	      1.01295407	      0.92780207	      0.49600717	     17.78419500	      0.95600980	    -15.49642086	     14.58584204	     14.58584204	      3.33425964	      2.63241504	     -5.69153172	     11.18466615	    -12.80961559	     -4.07056677	     50.29919493	     50.29919493	      4.14605717	    -13.99674849	     -9.74020971	    -10.20388450	      5.38440256	      1.45685133	     -4.31052572	    -17.40286650	    -11.05837700	     48.35499667	     45.68841388	      0.00000000	      0.00000000	      5.76729439	    -15.03976522	     -6.29683425	     89.39565607	     48.04906951	      0.00000000	      0.00000000
     31.02150000	     -4.98719911	     -5.50033515	      0.27202665	      1.01095152	      0.92770420	      0.49785231	     17.39876592	      1.30809706	    -15.73268287	     14.46093461	     14.46093461	      3.62281970	      2.80471665	     -5.97574414	     13.81696139	    -13.10230392	     -2.57577823	     54.34672904	     54.34672904	      3.17846497	    -14.81191591	     -6.30244750	    -10.19990032	      5.62266319	      1.75192196	     -2.44904318	    -18.04670521	    -10.30771234	     50.34856210	     45.59065208	      0.00000000	      0.00000000	      5.24150764	    -14.44615702	     -5.96550446	     86.33116275	     47.97996800	      0.00000000	      0.00000000
     31.03300000	     -5.04547805	     -5.79619589	      0.44878448	      1.00876013	      0.92753419	      0.49961030	     17.02285029	      1.72291081	    -15.88041522	     14.42572460	     14.42572460	      3.96492838	      2.75117786	     -6.13518380	     16.42690863	    -13.41823875	     -1.16337897	     58.13991524	     58.13991524	      2.88735662	    -15.05781553	     -2.06222454	    -10.29067135	      5.90585453	      1.96617915	     -0.51628163	    -18.72964930	     -9.39862770	     52.67790473	     45.48072298	      0.00000000	      0.00000000	      4.70522306	    -14.05095473	     -5.36646378	     83.22315160	     47.89352675	      0.00000000	      0.00000000
     31.04450000	     -4.98364606	     -6.15929624	      0.58420298	      1.00647629	      0.92743395	      0.50136012	     16.56292951	      2.21178837	    -15.97110134	     14.45489158	     14.45489158	      4.32272209	      2.74214145	     -6.26599526	     18.69300234	    -13.81117171	      0.04576977	     61.17887549	     61.17887549	      1.56808644	    -15.85201256	     -1.58020868	    -10.59450476	      6.19207730	      2.29643495	      2.05418065	    -19.19639881	     -9.50013601	     53.93514982	     45.45465763	      0.00000000	      0.00000000	      3.79446691	    -13.51472159	     -4.86586742	     81.80573458	     47.83013189	      0.00000000	      0.00000000
     31.05600000	     -5.21940431	     -6.30654912	      0.85026703	      1.00390824	      0.92702536	      0.50277226	     16.48802865	      2.43587225	    -16.05349313	     14.55788108	     14.55788108	      4.67894919	      2.29155783	     -6.29513001	     21.34959057	    -13.73500224	      1.42278997	     63.90531959	     63.90531959	      1.14322337	    -16.46427930	      0.40389709	    -10.43920116	      6.31576830	      1.67878783	      4.59067021	    -19.21199455	     -8.77116445	     56.21379032	     45.35850468	      0.00000000	      0.00000000	      3.00758399	    -13.53631471	     -4.71915680	     77.43160076	     47.73617985	      0.00000000	      0.00000000
     31.06750000	     -5.15955730	     -6.53720380	      1.04752717	      1.00140187	      0.92694286	      0.50397177	     16.12435183	      2.74431533	    -15.99428625	     14.74902344	     14.74902344	      5.22577947	      2.02800173	     -6.12071321	     23.72001403	    -13.77782352	      2.55554808	     66.42893229	     66.42893229	      2.58765031	    -16.21071596	      5.57933183	    -10.63946327	      6.57624917	      2.42674940	      6.01088961	    -20.58858576	     -6.55725263	     59.36059271	     45.18678168	      0.00000000	      0.00000000	      3.54852068	    -12.44369177	     -4.35642329	     72.39878341	     47.62972414	      0.00000000	      0.00000000
     31.07900000	     -5.18488555	     -6.67477521	      1.30398222	      0.99880817	      0.92686152	      0.50513062	     15.82751639	      2.95494460	    -15.99016141	     14.86410135	     14.86410135	      5.63588977	      1.67762038	     -6.13165562	     25.89865167	    -13.73222889	      3.48634287	     67.98594607	     67.98594607	      2.53544874	    -16.80872642	      6.01668091	    -10.80583880	      6.63576398	      2.17366250	      8.73002674	    -20.60117667	     -6.39867087	     61.23912254	     45.13321735	      0.00000000	      0.00000000	      2.66417140	    -12.31646932	     -4.06699800	     69.66914279	     47.55506675	      0.00000000	      0.00000000
     31.09050000	     -5.14349669	     -6.75604095	      1.51917713	      0.99622971	      0.92699315	      0.50609170	     15.47977974	      3.12171817	    -15.83277618	     15.01774783	     15.01774783	      6.14088379	      1.21062371	     -5.85145375	     27.91924996	    -13.62114100	      4.19661586	     69.07518109	     69.07518109	      3.31776847	    -17.20742939	      7.77987796	    -10.98650899	      6.69358971	      2.49395134	     10.83755885	    -21.48533746	     -4.77178465	     63.82947398	     45.01096488	      0.00000000	      0.00000000	      3.10007006	    -11.38628023	     -4.23834680	     64.20654618	     47.48044958	      0.00000000	      0.00000000
